<svg width="49" height="24" viewBox="0 0 49 24" fill="none" xmlns="http://www.w3.org/2000/svg">
<path fill-rule="evenodd" clip-rule="evenodd" d="M23.5903 0.723315C22.5713 0.749415 22.2679 0.78228 21.8984 0.906624C21.5758 1.01521 21.476 1.0831 21.2725 1.33205C20.9671 1.70582 20.7236 2.30153 20.5463 3.10901C20.4728 3.44376 20.4154 3.79333 20.1573 5.4773C20.1138 5.76085 20.0705 6.03077 20.0611 6.07711C20.0469 6.14632 20.094 6.11242 20.3244 5.88755C20.8656 5.35943 21.4268 4.96472 22.0987 4.63963C23.4131 4.00377 25.0706 3.71062 26.7568 3.81579C28.5274 3.92621 29.4676 4.33971 30.1683 5.31619C30.5585 5.86003 30.8729 6.74219 31.0008 7.65226C31.0543 8.03254 31.0543 10.2009 31.0009 10.8352C30.9641 11.2727 30.7449 12.9395 30.6632 13.4038C30.4323 14.7157 30.0331 15.829 29.5252 16.5777C29.162 17.113 28.2211 18.1336 27.7741 18.4771C26.7718 19.2473 25.6297 19.6335 24.0531 19.7354C23.4428 19.7748 21.1429 19.7749 19.9193 19.7355C18.8514 19.7012 17.9417 19.6909 17.9199 19.7129C17.9038 19.7292 17.8643 19.9491 17.5277 21.8959C17.4035 22.6145 17.3018 23.2175 17.3018 23.236C17.3018 23.3185 21.8237 23.3047 23.5903 23.2168C25.5626 23.1187 26.3644 22.9918 27.5644 22.588C28.7229 22.1982 29.6789 21.6877 30.5969 20.9689C30.96 20.6846 31.259 20.4037 31.9093 19.7354C32.7283 18.8938 33.02 18.5282 33.4201 17.842C33.9455 16.9406 34.3489 15.9403 34.6054 14.9027C35.3554 11.8683 35.3996 8.32863 34.7172 5.95057C34.3349 4.61833 33.7503 3.62919 32.752 2.62568C32.4866 2.35895 32.1574 2.06557 31.9847 1.94197C31.447 1.55712 30.5731 1.11842 30.0197 0.955537C29.7247 0.868699 29.1327 0.796362 28.3944 0.756891C27.5778 0.71323 24.7547 0.69351 23.5903 0.723315ZM17.8042 2.9806C17.2115 2.99253 16.7208 3.00819 16.7139 3.01537C16.7069 3.02256 16.6494 3.3547 16.5861 3.75344C16.5227 4.15218 16.4199 4.79742 16.3575 5.1873C16.2951 5.57719 16.1886 6.24418 16.1207 6.6695C16.0529 7.09483 15.9451 7.76907 15.8813 8.16781C15.8175 8.56655 15.7018 9.29154 15.6243 9.77889C15.5467 10.2662 15.4402 10.9332 15.3875 11.2611C15.295 11.8377 15.105 13.0258 14.9084 14.2577C14.8561 14.5856 14.7551 15.2163 14.684 15.6593C14.6128 16.1024 14.5051 16.7766 14.4444 17.1577C14.3838 17.5387 14.2693 18.2564 14.19 18.7526C13.9796 20.0697 13.8706 20.7525 13.7334 21.6123L13.6113 22.3776H14.2224C14.5586 22.3776 15.1564 22.3681 15.551 22.3565L16.2684 22.3354L16.3719 21.6879C16.4289 21.3317 16.5392 20.6416 16.6172 20.1543C16.6951 19.6669 16.8017 18.9999 16.854 18.6721C16.9062 18.3442 16.9991 17.7642 17.0604 17.3832C17.1216 17.0022 17.2444 16.2337 17.3333 15.6755C17.4222 15.1172 17.5299 14.443 17.5728 14.1771C17.7703 12.9499 17.8534 12.431 18.0035 11.4866C18.0923 10.9284 18.1931 10.2977 18.2276 10.085C18.2848 9.73214 18.3696 9.20222 18.6893 7.20116C18.7502 6.82014 18.843 6.24015 18.8956 5.91229C18.9482 5.58444 19.0706 4.81595 19.1675 4.20454C19.2645 3.59314 19.3492 3.06029 19.3558 3.0204C19.3675 2.95012 19.3604 2.94806 19.1249 2.95338C18.9912 2.95641 18.397 2.96865 17.8042 2.9806ZM23.4466 4.91323C22.5603 5.0764 21.7225 5.50147 21.0832 6.11229C20.2727 6.88677 19.8306 7.75173 19.6358 8.94422C19.5217 9.64231 19.4168 10.3043 19.1869 11.7766C19.0637 12.5653 18.7552 14.4716 18.5012 16.0129C18.2473 17.5542 18.0423 18.8176 18.0458 18.8204C18.0492 18.8232 18.6337 18.8428 19.3448 18.864C20.4915 18.8982 20.6646 18.8969 20.877 18.8522C21.5173 18.7175 22.0418 18.2488 22.2643 17.6124C22.3127 17.4737 22.5881 15.7361 23.4317 10.2461C23.5188 9.67901 23.6043 9.12801 23.6216 9.02168C23.6389 8.91535 23.7174 8.40786 23.7961 7.89392C23.8747 7.37999 24.0114 6.49383 24.0998 5.92466C24.1883 5.3555 24.2606 4.88065 24.2606 4.8694C24.2606 4.82877 23.7586 4.85578 23.4466 4.91323ZM11.8912 6.89219C11.3996 7.07395 10.3797 7.44862 9.62478 7.72483C8.86985 8.001 7.59859 8.46621 6.79976 8.75859C6.00094 9.05097 4.68659 9.53185 3.87898 9.82719C1.24562 10.7902 0.0539428 11.2287 0.04459 11.2381C0.0395464 11.2432 0.0253415 11.9295 0.0129881 12.7633C-0.0087821 14.2355 -0.00766485 14.2799 0.0514211 14.3037C0.0849063 14.3173 0.435496 14.4416 0.830519 14.5801C1.22554 14.7186 1.69957 14.8852 1.88392 14.9502C2.06826 15.0153 2.40583 15.1338 2.63406 15.2136C2.8623 15.2934 3.35069 15.4651 3.71938 15.5952C4.08807 15.7253 4.74165 15.9549 5.17179 16.1056C5.60193 16.2562 6.0975 16.4301 6.27307 16.4921C6.44863 16.5541 6.94421 16.7281 7.37434 16.8788C7.80448 17.0294 8.30724 17.2058 8.49158 17.2707C8.67593 17.3356 9.32233 17.5627 9.92803 17.7752C11.4651 18.3146 12.3647 18.6313 12.6193 18.7229C12.7388 18.7658 12.843 18.801 12.8507 18.801C12.8585 18.801 12.8648 18.1793 12.8648 17.4196V16.0382L12.6174 15.9502C12.4813 15.9018 12.1941 15.7983 11.9791 15.7202C11.764 15.6421 11.4049 15.5121 11.181 15.4313C10.9571 15.3506 10.6016 15.2213 10.3909 15.1442C10.0295 15.0118 6.3529 13.6786 5.491 13.3673C5.27154 13.2881 4.99862 13.1888 4.8845 13.1467C4.77038 13.1047 4.54425 13.0226 4.382 12.9645C4.21971 12.9064 4.09761 12.8489 4.11067 12.8367C4.12369 12.8246 4.31391 12.7418 4.53337 12.6528C4.75282 12.5638 5.2484 12.3614 5.63464 12.2029C7.38181 11.4862 7.87554 11.2838 8.42774 11.0578C8.75254 10.9248 9.44921 10.6392 9.97591 10.423C10.5026 10.2069 11.2639 9.89466 11.6677 9.72924C12.0715 9.56384 12.5025 9.38656 12.6254 9.33533L12.8488 9.24218L12.8571 7.89947C12.8638 6.83502 12.8571 6.55724 12.8252 6.55921C12.8031 6.56059 12.3828 6.71042 11.8912 6.89219ZM36.0076 7.90362V9.25049L36.6061 9.49673C37.1611 9.72505 38.4288 10.2451 39.7264 10.7767C40.0248 10.899 40.585 11.1288 40.9713 11.2874C41.7554 11.6094 43.0457 12.1376 43.9878 12.5222C44.3302 12.662 44.6519 12.7951 44.7027 12.8181L44.7952 12.8598L44.6389 12.9173C44.5529 12.949 44.3892 13.009 44.2751 13.0507C44.072 13.1249 39.5407 14.7674 38.7528 15.0524C38.5333 15.1318 38.2029 15.2518 38.0186 15.3192C37.8343 15.3865 37.3065 15.5776 36.8458 15.7438L36.0083 16.046L36.0079 17.4235C36.0077 18.1811 36.0184 18.8007 36.0315 18.8005C36.0447 18.8002 36.1129 18.7795 36.1831 18.7544C36.2534 18.7293 36.792 18.5399 37.3802 18.3334C37.9683 18.1269 38.7512 17.8516 39.1199 17.7216C39.4886 17.5916 39.9841 17.4175 40.2211 17.3347C40.4582 17.2519 40.9537 17.0778 41.3224 16.9479C41.6911 16.818 42.4883 16.5378 43.094 16.3252C43.6998 16.1127 44.3462 15.8857 44.5305 15.8207C44.7148 15.7558 45.2176 15.5795 45.6477 15.4288C46.0779 15.2782 46.5734 15.1042 46.749 15.0421C46.9246 14.9801 47.4202 14.8065 47.8503 14.6563C48.2804 14.506 48.6791 14.3665 48.7361 14.3462L48.8398 14.3092L48.8396 12.7771L48.8394 11.245L48.1453 10.9924C47.4657 10.7452 46.7781 10.4938 43.8123 9.40844C42.0781 8.77383 40.338 8.13723 38.3378 7.40557C37.539 7.11335 36.6931 6.80283 36.4581 6.71551C36.223 6.62819 36.0255 6.55673 36.0192 6.55673C36.0128 6.55673 36.0076 7.16282 36.0076 7.90362Z" fill="#9961FF"/>
</svg>
